<svg width="40" height="40" viewBox="0 0 40 40" fill="none" xmlns="http://www.w3.org/2000/svg">
<path d="M20 15.8667C19.1825 15.8667 18.3834 16.1091 17.7037 16.5633C17.0239 17.0174 16.4942 17.663 16.1813 18.4182C15.8685 19.1735 15.7866 20.0046 15.9461 20.8064C16.1056 21.6082 16.4992 22.3447 17.0773 22.9227C17.6554 23.5008 18.3918 23.8944 19.1936 24.0539C19.9954 24.2134 20.8265 24.1315 21.5818 23.8187C22.337 23.5059 22.9826 22.9761 23.4368 22.2964C23.8909 21.6166 24.1333 20.8175 24.1333 20C24.1333 19.4572 24.0264 18.9197 23.8187 18.4182C23.611 17.9168 23.3065 17.4611 22.9227 17.0773C22.5389 16.6935 22.0832 16.389 21.5818 16.1813C21.0803 15.9736 20.5428 15.8667 20 15.8667V15.8667ZM36.55 11.7833C36.5412 10.4963 36.3042 9.22096 35.85 8.01667C35.5155 7.13544 34.9979 6.33516 34.3314 5.66864C33.6649 5.00213 32.8646 4.48453 31.9833 4.15C30.7791 3.69578 29.5037 3.45877 28.2167 3.45C26.0667 3.33334 25.4333 3.33334 20 3.33334C14.5667 3.33334 13.9333 3.33334 11.7833 3.45C10.4963 3.45877 9.22096 3.69578 8.01668 4.15C7.13544 4.48453 6.33517 5.00213 5.66865 5.66864C5.00214 6.33516 4.48454 7.13544 4.15001 8.01667C3.69578 9.22096 3.45878 10.4963 3.45001 11.7833C3.33334 13.9333 3.33334 14.5667 3.33334 20C3.33334 25.4333 3.33334 26.0667 3.45001 28.2167C3.46795 29.5083 3.70463 30.7875 4.15001 32C4.48306 32.8772 5.00022 33.6728 5.66668 34.3333C6.33033 35.0039 7.13233 35.5214 8.01668 35.85C9.22096 36.3042 10.4963 36.5412 11.7833 36.55C13.9333 36.6667 14.5667 36.6667 20 36.6667C25.4333 36.6667 26.0667 36.6667 28.2167 36.55C29.5037 36.5412 30.7791 36.3042 31.9833 35.85C32.8677 35.5214 33.6697 35.0039 34.3333 34.3333C34.9998 33.6728 35.517 32.8772 35.85 32C36.3038 30.7898 36.5408 29.5091 36.55 28.2167C36.6667 26.0667 36.6667 25.4333 36.6667 20C36.6667 14.5667 36.6667 13.9333 36.55 11.7833V11.7833ZM32.3167 25.1167C32.2632 26.1452 32.0437 27.1583 31.6667 28.1167C31.3431 28.9161 30.8621 29.6424 30.2523 30.2523C29.6424 30.8621 28.9162 31.3431 28.1167 31.6667C27.1492 32.0227 26.1305 32.2197 25.1 32.25C23.7833 32.25 23.4333 32.25 20 32.25C16.5667 32.25 16.2167 32.25 14.9 32.25C13.8696 32.2197 12.8508 32.0227 11.8833 31.6667C11.0568 31.3595 10.3105 30.8695 9.70001 30.2333C9.09612 29.6354 8.62975 28.9131 8.33334 28.1167C7.97594 27.1502 7.78435 26.1303 7.76668 25.1C7.76668 23.7833 7.76668 23.4333 7.76668 20C7.76668 16.5667 7.76668 16.2167 7.76668 14.9C7.78435 13.8697 7.97594 12.8498 8.33334 11.8833C8.64048 11.0568 9.13047 10.3105 9.76668 9.7C10.3672 9.09938 11.0888 8.63349 11.8833 8.33334C12.8508 7.97735 13.8696 7.78035 14.9 7.75V7.75C16.2167 7.75 16.5667 7.75 20 7.75C23.4333 7.75 23.7833 7.75 25.1 7.75C26.1305 7.78035 27.1492 7.97735 28.1167 8.33334C28.9432 8.64047 29.6896 9.13046 30.3 9.76667C30.9039 10.3646 31.3703 11.0869 31.6667 11.8833C32.0227 12.8508 32.2197 13.8696 32.25 14.9C32.25 16.2167 32.25 16.5667 32.25 20C32.25 23.4333 32.3667 23.7833 32.3167 25.1V25.1167ZM29.65 12.7167C29.4516 12.1783 29.1387 11.6894 28.733 11.2837C28.3273 10.878 27.8384 10.5651 27.3 10.3667C26.5608 10.1104 25.7823 9.98632 25 10C23.7 10 23.3333 10 20 10C16.6667 10 16.3 10 15 10C14.2138 10.0077 13.4351 10.1544 12.7 10.4333C12.1699 10.6228 11.6862 10.9229 11.281 11.3137C10.8758 11.7045 10.5584 12.1771 10.35 12.7C10.108 13.4423 9.98973 14.2193 10 15C10 16.3 10 16.6667 10 20C10 23.3333 10 23.7 10 25C10.0165 25.7853 10.163 26.5625 10.4333 27.3C10.6318 27.8384 10.9447 28.3273 11.3504 28.733C11.7561 29.1387 12.245 29.4516 12.7833 29.65C13.4945 29.9115 14.2428 30.0578 15 30.0833V30.0833C16.3 30.0833 16.6667 30.0833 20 30.0833C23.3333 30.0833 23.7 30.0833 25 30.0833C25.7862 30.0757 26.5649 29.9289 27.3 29.65C27.8384 29.4516 28.3273 29.1387 28.733 28.733C29.1387 28.3273 29.4516 27.8384 29.65 27.3C29.929 26.5649 30.0757 25.7862 30.0833 25C30.0833 23.7 30.0833 23.3333 30.0833 20C30.0833 16.6667 30.0833 16.3 30.0833 15C30.0838 14.213 29.9368 13.4329 29.65 12.7V12.7167ZM20 26.3667C19.1647 26.3667 18.3376 26.2019 17.5661 25.8817C16.7946 25.5616 16.0939 25.0923 15.504 24.5009C14.9141 23.9095 14.4467 23.2075 14.1286 22.4352C13.8104 21.6628 13.6478 20.8353 13.65 20V20C13.65 18.7401 14.0238 17.5085 14.7242 16.4611C15.4245 15.4138 16.4198 14.5978 17.5841 14.1164C18.7485 13.635 20.0294 13.5099 21.2649 13.7569C22.5004 14.0039 23.6348 14.612 24.5245 15.504C25.4142 16.3961 26.0193 17.5321 26.263 18.7682C26.5068 20.0043 26.3783 21.2849 25.8939 22.448C25.4095 23.6111 24.5909 24.6042 23.5417 25.3018C22.4925 25.9994 21.2599 26.37 20 26.3667V26.3667ZM26.6667 14.8833C26.2982 14.8443 25.9573 14.6704 25.7095 14.395C25.4617 14.1195 25.3246 13.7622 25.3246 13.3917C25.3246 13.0212 25.4617 12.6638 25.7095 12.3884C25.9573 12.113 26.2982 11.939 26.6667 11.9V11.9C27.0351 11.939 27.3761 12.113 27.6239 12.3884C27.8717 12.6638 28.0088 13.0212 28.0088 13.3917C28.0088 13.7622 27.8717 14.1195 27.6239 14.395C27.3761 14.6704 27.0351 14.8443 26.6667 14.8833Z" fill="black"/>
</svg>
